<mxfile host="app.diagrams.net" agent="Mozilla/5.0 (X11; Ubuntu; Linux x86_64; rv:141.0) Gecko/20100101 Firefox/141.0" version="28.0.7">
  <diagram name="Page-1" id="vSZzm0c0lSDc5pFVxaaF">
    <mxGraphModel dx="1371" dy="887" grid="1" gridSize="10" guides="1" tooltips="1" connect="1" arrows="1" fold="1" page="1" pageScale="1" pageWidth="850" pageHeight="1100" math="0" shadow="0">
      <root>
        <mxCell id="0" />
        <mxCell id="1" parent="0" />
        <mxCell id="P9exJsjkpcG24izdwx1V-1" value="" style="rounded=0;whiteSpace=wrap;html=1;fillColor=none;strokeColor=#6c8ebf;dashed=1;dashPattern=8 8;" parent="1" vertex="1">
          <mxGeometry x="530" y="30" width="230" height="250" as="geometry" />
        </mxCell>
        <mxCell id="P9exJsjkpcG24izdwx1V-12" value="" style="rounded=0;whiteSpace=wrap;html=1;fillColor=none;strokeColor=#6c8ebf;dashed=1;dashPattern=8 8;" parent="1" vertex="1">
          <mxGeometry x="540" y="62" width="210" height="188" as="geometry" />
        </mxCell>
        <mxCell id="aPNDeGo1sduExx9jBJkK-10" style="edgeStyle=orthogonalEdgeStyle;rounded=0;orthogonalLoop=1;jettySize=auto;html=1;entryX=0.5;entryY=0;entryDx=0;entryDy=0;startArrow=classic;startFill=1;fillColor=#dae8fc;strokeColor=#6c8ebf;" parent="1" source="aPNDeGo1sduExx9jBJkK-1" target="aPNDeGo1sduExx9jBJkK-5" edge="1">
          <mxGeometry relative="1" as="geometry" />
        </mxCell>
        <mxCell id="aPNDeGo1sduExx9jBJkK-16" style="edgeStyle=orthogonalEdgeStyle;rounded=0;orthogonalLoop=1;jettySize=auto;html=1;entryX=0;entryY=0.5;entryDx=0;entryDy=0;startArrow=classic;startFill=1;fillColor=#dae8fc;strokeColor=#6c8ebf;" parent="1" source="aPNDeGo1sduExx9jBJkK-1" target="aPNDeGo1sduExx9jBJkK-4" edge="1">
          <mxGeometry relative="1" as="geometry" />
        </mxCell>
        <mxCell id="aPNDeGo1sduExx9jBJkK-1" value="PEP" style="rounded=1;whiteSpace=wrap;html=1;fillColor=#d5e8d4;strokeColor=#82b366;" parent="1" vertex="1">
          <mxGeometry x="259" y="76" width="190" height="50" as="geometry" />
        </mxCell>
        <mxCell id="aPNDeGo1sduExx9jBJkK-15" style="edgeStyle=orthogonalEdgeStyle;rounded=0;orthogonalLoop=1;jettySize=auto;html=1;entryX=0;entryY=0.5;entryDx=0;entryDy=0;startArrow=classic;startFill=1;fillColor=#dae8fc;strokeColor=#6c8ebf;" parent="1" source="aPNDeGo1sduExx9jBJkK-2" target="aPNDeGo1sduExx9jBJkK-1" edge="1">
          <mxGeometry relative="1" as="geometry" />
        </mxCell>
        <mxCell id="aPNDeGo1sduExx9jBJkK-2" value="Some Client&lt;br&gt;«Subject»" style="rounded=0;whiteSpace=wrap;html=1;fillColor=#dae8fc;strokeColor=#6c8ebf;" parent="1" vertex="1">
          <mxGeometry x="40" y="76" width="100" height="50" as="geometry" />
        </mxCell>
        <mxCell id="aPNDeGo1sduExx9jBJkK-4" value="Some Entity&lt;br&gt;«Object»" style="rounded=0;whiteSpace=wrap;html=1;fillColor=#dae8fc;strokeColor=#6c8ebf;" parent="1" vertex="1">
          <mxGeometry x="635" y="76" width="100" height="50" as="geometry" />
        </mxCell>
        <mxCell id="P9exJsjkpcG24izdwx1V-24" style="edgeStyle=orthogonalEdgeStyle;rounded=0;orthogonalLoop=1;jettySize=auto;html=1;entryX=0;entryY=0.5;entryDx=0;entryDy=0;startArrow=classic;startFill=1;fillColor=#dae8fc;strokeColor=#6c8ebf;endArrow=classic;endFill=1;" parent="1" source="aPNDeGo1sduExx9jBJkK-5" target="P9exJsjkpcG24izdwx1V-5" edge="1">
          <mxGeometry relative="1" as="geometry" />
        </mxCell>
        <mxCell id="aPNDeGo1sduExx9jBJkK-5" value="PDP" style="rounded=1;whiteSpace=wrap;html=1;fillColor=#d5e8d4;strokeColor=#82b366;" parent="1" vertex="1">
          <mxGeometry x="259" y="334" width="190" height="50" as="geometry" />
        </mxCell>
        <mxCell id="aPNDeGo1sduExx9jBJkK-7" value="PAP" style="rounded=1;whiteSpace=wrap;html=1;fillColor=#d5e8d4;strokeColor=#82b366;" parent="1" vertex="1">
          <mxGeometry x="40" y="444" width="190" height="50" as="geometry" />
        </mxCell>
        <mxCell id="aPNDeGo1sduExx9jBJkK-8" value="Policy Repository" style="shape=cylinder3;whiteSpace=wrap;html=1;boundedLbl=1;backgroundOutline=1;size=15;fillColor=#d5e8d4;strokeColor=#82b366;" parent="1" vertex="1">
          <mxGeometry x="294" y="429" width="120" height="80" as="geometry" />
        </mxCell>
        <mxCell id="aPNDeGo1sduExx9jBJkK-14" style="edgeStyle=orthogonalEdgeStyle;rounded=0;orthogonalLoop=1;jettySize=auto;html=1;entryX=0;entryY=0.5;entryDx=0;entryDy=0;entryPerimeter=0;fillColor=#dae8fc;strokeColor=#6c8ebf;" parent="1" source="aPNDeGo1sduExx9jBJkK-7" target="aPNDeGo1sduExx9jBJkK-8" edge="1">
          <mxGeometry relative="1" as="geometry" />
        </mxCell>
        <mxCell id="P9exJsjkpcG24izdwx1V-3" value="Microservice" style="text;html=1;align=center;verticalAlign=middle;whiteSpace=wrap;rounded=0;fillColor=none;fontColor=#6C8EBF;fontStyle=1" parent="1" vertex="1">
          <mxGeometry x="530" y="30" width="90" height="19" as="geometry" />
        </mxCell>
        <mxCell id="P9exJsjkpcG24izdwx1V-5" value="&lt;div&gt;Other Services&lt;/div&gt;«PIP»" style="rounded=1;whiteSpace=wrap;html=1;fillColor=#d5e8d4;strokeColor=#82b366;" parent="1" vertex="1">
          <mxGeometry x="550" y="334" width="190" height="50" as="geometry" />
        </mxCell>
        <mxCell id="P9exJsjkpcG24izdwx1V-13" value="Your Code" style="text;html=1;align=center;verticalAlign=middle;whiteSpace=wrap;rounded=0;fillColor=none;fontColor=#6C8EBF;fontStyle=1" parent="1" vertex="1">
          <mxGeometry x="540" y="62" width="80" height="19" as="geometry" />
        </mxCell>
        <mxCell id="P9exJsjkpcG24izdwx1V-25" style="edgeStyle=orthogonalEdgeStyle;rounded=0;orthogonalLoop=1;jettySize=auto;html=1;entryX=0.5;entryY=0;entryDx=0;entryDy=0;entryPerimeter=0;startArrow=classic;startFill=1;fillColor=#dae8fc;strokeColor=#6c8ebf;" parent="1" source="aPNDeGo1sduExx9jBJkK-5" target="aPNDeGo1sduExx9jBJkK-8" edge="1">
          <mxGeometry relative="1" as="geometry" />
        </mxCell>
        <mxCell id="P9exJsjkpcG24izdwx1V-29" value="" style="rounded=0;whiteSpace=wrap;html=1;fillColor=none;strokeColor=#6c8ebf;dashed=1;dashPattern=8 8;" parent="1" vertex="1">
          <mxGeometry x="239" y="30" width="230" height="150" as="geometry" />
        </mxCell>
        <mxCell id="P9exJsjkpcG24izdwx1V-30" value="Edge-Component" style="text;html=1;align=center;verticalAlign=middle;whiteSpace=wrap;rounded=0;fillColor=none;fontColor=#6C8EBF;fontStyle=1" parent="1" vertex="1">
          <mxGeometry x="239" y="30" width="121" height="19" as="geometry" />
        </mxCell>
        <mxCell id="P9exJsjkpcG24izdwx1V-32" style="edgeStyle=orthogonalEdgeStyle;rounded=0;orthogonalLoop=1;jettySize=auto;html=1;entryX=0.061;entryY=1.012;entryDx=0;entryDy=0;entryPerimeter=0;exitX=0.998;exitY=0.062;exitDx=0;exitDy=0;exitPerimeter=0;endArrow=none;startFill=0;fillColor=#dae8fc;strokeColor=#6c8ebf;dashed=1;dashPattern=8 8;" parent="1" source="P9exJsjkpcG24izdwx1V-1" target="P9exJsjkpcG24izdwx1V-1" edge="1">
          <mxGeometry relative="1" as="geometry">
            <Array as="points">
              <mxPoint x="770" y="46" />
              <mxPoint x="770" y="290" />
              <mxPoint x="544" y="290" />
            </Array>
          </mxGeometry>
        </mxCell>
        <mxCell id="P9exJsjkpcG24izdwx1V-33" style="edgeStyle=orthogonalEdgeStyle;rounded=0;orthogonalLoop=1;jettySize=auto;html=1;entryX=0.061;entryY=1.012;entryDx=0;entryDy=0;entryPerimeter=0;exitX=0.998;exitY=0.062;exitDx=0;exitDy=0;exitPerimeter=0;endArrow=none;startFill=0;fillColor=#dae8fc;strokeColor=#6c8ebf;dashed=1;dashPattern=8 8;" parent="1" edge="1">
          <mxGeometry relative="1" as="geometry">
            <mxPoint x="770" y="56" as="sourcePoint" />
            <mxPoint x="554" y="293" as="targetPoint" />
            <Array as="points">
              <mxPoint x="780" y="56" />
              <mxPoint x="780" y="300" />
              <mxPoint x="554" y="300" />
            </Array>
          </mxGeometry>
        </mxCell>
        <mxCell id="9KkRuYMceV6Y0vYeEBro-1" value="Depending on the PDP deployment and integration option, it can be part of the edge component, e.g. an ingress proxy, run alongside it as a sidecar, or — as shown here — be deployed as a separate service." style="shape=callout;whiteSpace=wrap;html=1;perimeter=calloutPerimeter;position2=0.75;fillColor=#fff2cc;strokeColor=#d6b656;align=left;" vertex="1" parent="1">
          <mxGeometry x="120" y="220" width="213" height="123" as="geometry" />
        </mxCell>
      </root>
    </mxGraphModel>
  </diagram>
</mxfile>
